# xmcd CD database file
#
# Track frame offsets:
#	150
#	26775
#	58395
#	79527
#	99675
#	135177
#	152800
#	188072
#	221734
#	251597
#	279807
#	300875
#
# Disc length: 4312 seconds
#
# Revision: 0
# Processed by: cddbd v1.5.1PL0 Copyright (c) Steve Scherf et al.
# Submitted via: CDex 1.51
#
DISCID=9a10d60c
DTITLE=Various Artist - Free Your Mind 2
DYEAR=2005
DGENRE=New Age
TTITLE0=Spirit of The Forest
TTITLE1=Thunder
TTITLE2=The Prodigal Son
TTITLE3=Rubor
TTITLE4=Well-Being5-Offering Oneself
TTITLE5=Eribanda Reo d'Or
TTITLE6=Winds Across The Pacific
TTITLE7=This is Love
TTITLE8=Les Messagers Du Temps
TTITLE9=Alleluia
TTITLE10=From Within
TTITLE11=Silkworm
EXTD=YEAR: 2005
EXTT0=
EXTT1=
EXTT2=
EXTT3=
EXTT4=
EXTT5=
EXTT6=
EXTT7=
EXTT8=
EXTT9=
EXTT10=
EXTT11=
PLAYORDER=
